{
  "accessors": [
    {
      "bufferView": 2,
      "componentType": 5126,
      "count": 8318,
      "max": [
        212.28770446777344,
        81.912460327148438,
        121.85669708251953
      ],
      "min": [
        -31.425699234008789,
        -10.904809951782227,
        -121.85669708251953
      ],
      "type": "VEC3"
    },
    {
      "bufferView": 2,
      "byteOffset": 99816,
      "componentType": 5126,
      "count": 8318,
      "max": [
        1,
        1,
        1
      ],
      "min": [
        -1,
        -1,
        -1
      ],
      "type": "VEC3"
    },
    {
      "bufferView": 3,
      "componentType": 5126,
      "count": 8318,
      "max": [
        0.99834215641021729,
        0.99901223182678223,
        0.99441248178482056,
        1
      ],
      "min": [
        -0.99999982118606567,
        -1,
        -0.99983692169189453,
        1
      ],
      "type": "VEC4"
    },
    {
      "bufferView": 1,
      "componentType": 5126,
      "count": 8318,
      "max": [
        0.98716259002685547,
        0.9383472204208374
      ],
      "min": [
        0.001953125,
        0.001953125
      ],
      "type": "VEC2"
    },
    {
      "bufferView": 0,
      "componentType": 5125,
      "count": 46848,
      "max": [
        8317
      ],
      "min": [
        0
      ],
      "type": "SCALAR"
    },
    {
      "bufferView": 2,
      "byteOffset": 199632,
      "componentType": 5126,
      "count": 712,
      "max": [
        162.22749328613281,
        53.966350555419922,
        71.796432495117188
      ],
      "min": [
        18.634590148925781,
        -8.2533969879150391,
        -71.796432495117188
      ],
      "type": "VEC3"
    },
    {
      "bufferView": 2,
      "byteOffset": 208176,
      "componentType": 5126,
      "count": 712,
      "max": [
        0.18956713378429413,
        -0.98186475038528442,
        0.18956713378429413
      ],
      "min": [
        -0.18956713378429413,
        -1,
        -0.18956713378429413
      ],
      "type": "VEC3"
    },
    {
      "bufferView": 3,
      "byteOffset": 133088,
      "componentType": 5126,
      "count": 712,
      "max": [
        0.92370039224624634,
        0.18957324326038361,
        0.91634994745254517,
        1
      ],
      "min": [
        -0.99978268146514893,
        -0.18661004304885864,
        -0.99998611211776733,
        1
      ],
      "type": "VEC4"
    },
    {
      "bufferView": 0,
      "byteOffset": 187392,
      "componentType": 5125,
      "count": 3072,
      "max": [
        711
      ],
      "min": [
        0
      ],
      "type": "SCALAR"
    },
    {
      "bufferView": 2,
      "byteOffset": 216720,
      "componentType": 5126,
      "count": 1006,
      "max": [
        125.45320129394531,
        3.4224131107330322,
        35.022148132324219
      ],
      "min": [
        55.408870697021484,
        -8.2533988952636719,
        -35.022148132324219
      ],
      "type": "VEC3"
    },
    {
      "bufferView": 2,
      "byteOffset": 228792,
      "componentType": 5126,
      "count": 1006,
      "max": [
        0.94964766502380371,
        -0.31328433752059937,
        0.94964766502380371
      ],
      "min": [
        -0.94964766502380371,
        -1,
        -0.94964766502380371
      ],
      "type": "VEC3"
    },
    {
      "bufferView": 3,
      "byteOffset": 144480,
      "componentType": 5126,
      "count": 1006,
      "max": [
        0.84926372766494751,
        0.94965833425521851,
        0.60192996263504028,
        1
      ],
      "min": [
        -0.89159220457077026,
        0,
        -0.97020834684371948,
        1
      ],
      "type": "VEC4"
    },
    {
      "bufferView": 0,
      "byteOffset": 199680,
      "componentType": 5125,
      "count": 5376,
      "max": [
        1005
      ],
      "min": [
        0
      ],
      "type": "SCALAR"
    },
    {
      "bufferView": 2,
      "byteOffset": 240864,
      "componentType": 5126,
      "count": 325,
      "max": [
        153.53300476074219,
        52.355449676513672,
        63.101970672607422
      ],
      "min": [
        27.329059600830078,
        45.918670654296875,
        -63.101970672607422
      ],
      "type": "VEC3"
    },
    {
      "bufferView": 2,
      "byteOffset": 244764,
      "componentType": 5126,
      "count": 325,
      "max": [
        1,
        0,
        1
      ],
      "min": [
        -1,
        0,
        -1
      ],
      "type": "VEC3"
    },
    {
      "bufferView": 3,
      "byteOffset": 160576,
      "componentType": 5126,
      "count": 325,
      "max": [
        0.28487646579742432,
        -0.94901537895202637,
        0.24705396592617035,
        1
      ],
      "min": [
        -0.2620965838432312,
        -1,
        -0.17513088881969452,
        1
      ],
      "type": "VEC4"
    },
    {
      "bufferView": 0,
      "byteOffset": 221184,
      "componentType": 5125,
      "count": 1536,
      "max": [
        324
      ],
      "min": [
        0
      ],
      "type": "SCALAR"
    }
  ],
  "asset": {
    "extras": {
      "author": "Zuncho Multimedia (https://sketchfab.com/zunchomultimedia)",
      "license": "CC-BY-4.0 (http://creativecommons.org/licenses/by/4.0/)",
      "source": "https://sketchfab.com/models/f4f0fd05ee884db1898fd7c0aab57711",
      "title": "UFO - B4 Model - Nasa"
    },
    "generator": "Sketchfab-3.29.3",
    "version": "2.0"
  },
  "bufferViews": [
    {
      "buffer": 0,
      "byteLength": 227328,
      "byteOffset": 0,
      "name": "floatBufferViews",
      "target": 34963
    },
    {
      "buffer": 0,
      "byteLength": 66544,
      "byteOffset": 227328,
      "byteStride": 8,
      "name": "floatBufferViews",
      "target": 34962
    },
    {
      "buffer": 0,
      "byteLength": 248664,
      "byteOffset": 293872,
      "byteStride": 12,
      "name": "floatBufferViews",
      "target": 34962
    },
    {
      "buffer": 0,
      "byteLength": 165776,
      "byteOffset": 542536,
      "byteStride": 16,
      "name": "floatBufferViews",
      "target": 34962
    }
  ],
  "buffers": [
    {
      "byteLength": 708312,
      "uri": "scene.bin"
    }
  ],
  "images": [
    {
      "uri": "textures/Body_baseColor.png"
    },
    {
      "uri": "textures/Body_metallicRoughness.png"
    },
    {
      "uri": "textures/Body_normal.png"
    }
  ],
  "materials": [
    {
      "doubleSided": true,
      "emissiveFactor": [
        0,
        0,
        0
      ],
      "name": "Body",
      "normalTexture": {
        "index": 2,
        "scale": 1,
        "texCoord": 0
      },
      "pbrMetallicRoughness": {
        "baseColorFactor": [
          0.48956215089999999,
          0.48956215089999999,
          0.48956215089999999,
          1
        ],
        "baseColorTexture": {
          "index": 0,
          "texCoord": 0
        },
        "metallicFactor": 0.75785483379999996,
        "metallicRoughnessTexture": {
          "index": 1,
          "texCoord": 0
        },
        "roughnessFactor": 1
      }
    },
    {
      "doubleSided": true,
      "emissiveFactor": [
        0,
        0,
        0
      ],
      "name": "default",
      "pbrMetallicRoughness": {
        "baseColorFactor": [
          1,
          1,
          1,
          1
        ],
        "metallicFactor": 0,
        "roughnessFactor": 0.95243171540000005
      }
    },
    {
      "doubleSided": true,
      "emissiveFactor": [
        1,
        1,
        1
      ],
      "name": "Light_2",
      "pbrMetallicRoughness": {
        "baseColorFactor": [
          1,
          1,
          1,
          1
        ],
        "metallicFactor": 0,
        "roughnessFactor": 0.95243171540000005
      }
    },
    {
      "doubleSided": true,
      "emissiveFactor": [
        1,
        1,
        1
      ],
      "name": "Light",
      "pbrMetallicRoughness": {
        "baseColorFactor": [
          1,
          1,
          1,
          1
        ],
        "metallicFactor": 0,
        "roughnessFactor": 0.95243171540000005
      }
    }
  ],
  "meshes": [
    {
      "name": "Body_low_Body_0",
      "primitives": [
        {
          "attributes": {
            "NORMAL": 1,
            "POSITION": 0,
            "TANGENT": 2,
            "TEXCOORD_0": 3
          },
          "indices": 4,
          "material": 0,
          "mode": 4
        }
      ]
    },
    {
      "name": "Body_low_default_0",
      "primitives": [
        {
          "attributes": {
            "NORMAL": 6,
            "POSITION": 5,
            "TANGENT": 7
          },
          "indices": 8,
          "material": 1,
          "mode": 4
        }
      ]
    },
    {
      "name": "Light_2_low_Light 2_0",
      "primitives": [
        {
          "attributes": {
            "NORMAL": 10,
            "POSITION": 9,
            "TANGENT": 11
          },
          "indices": 12,
          "material": 2,
          "mode": 4
        }
      ]
    },
    {
      "name": "Light_1_low_Light_0",
      "primitives": [
        {
          "attributes": {
            "NORMAL": 14,
            "POSITION": 13,
            "TANGENT": 15
          },
          "indices": 16,
          "material": 3,
          "mode": 4
        }
      ]
    }
  ],
  "nodes": [
    {
      "children": [
        1
      ],
      "name": "RootNode (gltf orientation matrix)",
      "rotation": [
        -0.70710678118654746,
        -0,
        -0,
        0.70710678118654757
      ]
    },
    {
      "children": [
        2
      ],
      "name": "RootNode (model correction matrix)"
    },
    {
      "children": [
        3
      ],
      "matrix": [
        1,
        0,
        0,
        0,
        0,
        0,
        1,
        0,
        0,
        -1,
        0,
        0,
        0,
        0,
        0,
        1
      ],
      "name": "feb6f856af86428bb865ab1ee46e87a8.fbx"
    },
    {
      "children": [
        4,
        7,
        9
      ],
      "name": "RootNode"
    },
    {
      "children": [
        5,
        6
      ],
      "name": "Body_low"
    },
    {
      "mesh": 0,
      "name": "Body_low_Body_0"
    },
    {
      "mesh": 1,
      "name": "Body_low_default_0"
    },
    {
      "children": [
        8
      ],
      "name": "Light_2_low"
    },
    {
      "mesh": 2,
      "name": "Light_2_low_Light 2_0"
    },
    {
      "children": [
        10
      ],
      "name": "Light_1_low"
    },
    {
      "mesh": 3,
      "name": "Light_1_low_Light_0"
    }
  ],
  "samplers": [
    {
      "magFilter": 9729,
      "minFilter": 9987,
      "wrapS": 10497,
      "wrapT": 10497
    }
  ],
  "scene": 0,
  "scenes": [
    {
      "name": "OSG_Scene",
      "nodes": [
        0
      ]
    }
  ],
  "textures": [
    {
      "sampler": 0,
      "source": 0
    },
    {
      "sampler": 0,
      "source": 1
    },
    {
      "sampler": 0,
      "source": 2
    }
  ]
}

